<?xml version="1.0" encoding="utf-8"?>
<svg version="1.1" xmlns:xlink="http://www.w3.org/1999/xlink" width="12px" height="12px" viewBox="79 87.5  12 12" xmlns="http://www.w3.org/2000/svg">
  <path d="M 85 87.5  C 88.36 87.5  91 90.14  91 93.5  C 91 96.86  88.36 99.5  85 99.5  C 81.64 99.5  79 96.86  79 93.5  C 79 90.14  81.64 87.5  85 87.5  Z " fill-rule="nonzero" fill="#ffffff" stroke="none" />
  <path d="M 85 88  C 88.08 88  90.5 90.42  90.5 93.5  C 90.5 96.58  88.08 99  85 99  C 81.92 99  79.5 96.58  79.5 93.5  C 79.5 90.42  81.92 88  85 88  Z " stroke-width="1" stroke="#797979" fill="none" />
  <path d="M 85 96.5  C 83.32 96.5  82 95.18  82 93.5  C 82 91.82  83.32 90.5  85 90.5  C 86.68 90.5  88 91.82  88 93.5  C 88 95.18  86.68 96.5  85 96.5  " fill-rule="nonzero" fill="#797979" stroke="none" />
</svg>