<?xml version="1.0" encoding="utf-8"?>
<svg version="1.1" xmlns:xlink="http://www.w3.org/1999/xlink" width="14px" height="14px" xmlns="http://www.w3.org/2000/svg">
  <g transform="matrix(1 0 0 1 -492 -52 )">
    <path d="M 1.07692307692304 10.75  L 1.07692307692304 13  L 3.5 13  L 3.5 10.75  L 1.07692307692304 10.75  Z M 4.03846153846157 10.75  L 4.03846153846157 13  L 6.73076923076922 13  L 6.73076923076922 10.75  L 4.03846153846157 10.75  Z M 1.07692307692304 7.75000000000001  L 1.07692307692304 10.25  L 3.5 10.25  L 3.5 7.75000000000001  L 1.07692307692304 7.75000000000001  Z M 4.03846153846157 7.75000000000001  L 4.03846153846157 10.25  L 6.73076923076922 10.25  L 6.73076923076922 7.75000000000001  L 4.03846153846157 7.75000000000001  Z M 1.07692307692304 5  L 1.07692307692304 7.25  L 3.5 7.25  L 3.5 5  L 1.07692307692304 5  Z M 7.26923076923078 10.75  L 7.26923076923078 13  L 9.96153846153843 13  L 9.96153846153843 10.75  L 7.26923076923078 10.75  Z M 4.03846153846157 5  L 4.03846153846157 7.25  L 6.73076923076922 7.25  L 6.73076923076922 5  L 4.03846153846157 5  Z M 10.5 10.75  L 10.5 13  L 12.923076923077 13  L 12.923076923077 10.75  L 10.5 10.75  Z M 7.26923076923078 7.75000000000001  L 7.26923076923078 10.25  L 9.96153846153843 10.25  L 9.96153846153843 7.75000000000001  L 7.26923076923078 7.75000000000001  Z M 4.22776442307696 3.67578125000001  C 4.28104967948719 3.62630208333333  4.30769230769235 3.56770833333333  4.30769230769235 3.5  L 4.30769230769235 1.25  C 4.30769230769235 1.18229166666667  4.28104967948719 1.12369791666666  4.22776442307696 1.07421875  C 4.17447916666664 1.02473958333333  4.1113782051282 1  4.03846153846157 1  L 3.5 1  C 3.42708333333336 1  3.36398237179484 1.02473958333333  3.31069711538461 1.07421875  C 3.25741185897438 1.12369791666666  3.23076923076922 1.18229166666667  3.23076923076922 1.25  L 3.23076923076922 3.5  C 3.23076923076922 3.56770833333333  3.25741185897438 3.62630208333333  3.31069711538461 3.67578125000001  C 3.36398237179484 3.72526041666667  3.42708333333336 3.75  3.5 3.75  L 4.03846153846157 3.75  C 4.1113782051282 3.75  4.17447916666664 3.72526041666667  4.22776442307696 3.67578125000001  Z M 10.5 7.75000000000001  L 10.5 10.25  L 12.923076923077 10.25  L 12.923076923077 7.75000000000001  L 10.5 7.75000000000001  Z M 7.26923076923078 5  L 7.26923076923078 7.25  L 9.96153846153843 7.25  L 9.96153846153843 5  L 7.26923076923078 5  Z M 10.5 5  L 10.5 7.25  L 12.923076923077 7.25  L 12.923076923077 5  L 10.5 5  Z M 10.6893028846154 3.67578125000001  C 10.7425881410256 3.62630208333333  10.7692307692308 3.56770833333333  10.7692307692308 3.5  L 10.7692307692308 1.25  C 10.7692307692308 1.18229166666667  10.7425881410256 1.12369791666666  10.6893028846154 1.07421875  C 10.6360176282052 1.02473958333333  10.5729166666666 1  10.5 1  L 9.96153846153843 1  C 9.8886217948718 1  9.82552083333336 1.02473958333333  9.77223557692304 1.07421875  C 9.71895032051281 1.12369791666666  9.69230769230765 1.18229166666667  9.69230769230765 1.25  L 9.69230769230765 3.5  C 9.69230769230765 3.56770833333333  9.71895032051281 3.62630208333333  9.77223557692304 3.67578125000001  C 9.82552083333336 3.72526041666667  9.8886217948718 3.75  9.96153846153843 3.75  L 10.5 3.75  C 10.5729166666666 3.75  10.6360176282052 3.72526041666667  10.6893028846154 3.67578125000001  Z M 13.6802884615384 2.296875  C 13.8934294871794 2.49479166666667  14 2.72916666666667  14 3  L 14 13  C 14 13.2708333333333  13.8934294871794 13.5052083333333  13.6802884615384 13.703125  C 13.4671474358974 13.9010416666667  13.2147435897436 14  12.923076923077 14  L 1.07692307692304 14  C 0.785256410256405 14  0.532852564102581 13.9010416666667  0.319711538461567 13.703125  C 0.106570512820554 13.5052083333333  0 13.2708333333333  0 13  L 0 3  C 0 2.72916666666667  0.106570512820554 2.49479166666667  0.319711538461567 2.296875  C 0.532852564102581 2.09895833333333  0.785256410256405 2  1.07692307692304 2  L 2.15384615384618 2  L 2.15384615384618 1.25  C 2.15384615384618 0.906249999999998  2.28565705128203 0.61197916666667  2.54927884615382 0.367187499999995  C 2.81290064102562 0.122395833333332  3.12980769230765 0  3.5 0  L 4.03846153846157 0  C 4.40865384615382 0  4.72556089743585 0.122395833333332  4.98918269230765 0.367187499999995  C 5.25280448717945 0.61197916666667  5.38461538461539 0.906249999999998  5.38461538461539 1.25  L 5.38461538461539 2  L 8.61538461538461 2  L 8.61538461538461 1.25  C 8.61538461538461 0.906249999999998  8.74719551282055 0.61197916666667  9.01081730769235 0.367187499999995  C 9.27443910256415 0.122395833333332  9.59134615384618 0  9.96153846153843 0  L 10.5 0  C 10.8701923076924 0  11.1870993589744 0.122395833333332  11.4507211538462 0.367187499999995  C 11.714342948718 0.61197916666667  11.8461538461538 0.906249999999998  11.8461538461538 1.25  L 11.8461538461538 2  L 12.923076923077 2  C 13.2147435897436 2  13.4671474358974 2.09895833333333  13.6802884615384 2.296875  Z " fill-rule="nonzero" fill="#cccccc" stroke="none" transform="matrix(1 0 0 1 492 52 )" />
  </g>
</svg>