<?xml version="1.0" encoding="utf-8"?>
<svg version="1.1" xmlns:xlink="http://www.w3.org/1999/xlink" width="12px" height="13px" xmlns="http://www.w3.org/2000/svg">
  <g transform="matrix(1 0 0 1 -672 -53 )">
    <path d="M 0.923076923076892 9.98214285714286  L 0.923076923076892 12.0714285714286  L 3 12.0714285714286  L 3 9.98214285714286  L 0.923076923076892 9.98214285714286  Z M 3.46153846153849 9.98214285714286  L 3.46153846153849 12.0714285714286  L 5.76923076923076 12.0714285714286  L 5.76923076923076 9.98214285714286  L 3.46153846153849 9.98214285714286  Z M 0.923076923076892 7.19642857142858  L 0.923076923076892 9.51785714285714  L 3 9.51785714285714  L 3 7.19642857142858  L 0.923076923076892 7.19642857142858  Z M 3.46153846153849 7.19642857142858  L 3.46153846153849 9.51785714285714  L 5.76923076923076 9.51785714285714  L 5.76923076923076 7.19642857142858  L 3.46153846153849 7.19642857142858  Z M 0.923076923076892 4.64285714285714  L 0.923076923076892 6.73214285714286  L 3 6.73214285714286  L 3 4.64285714285714  L 0.923076923076892 4.64285714285714  Z M 6.23076923076924 9.98214285714286  L 6.23076923076924 12.0714285714286  L 8.53846153846151 12.0714285714286  L 8.53846153846151 9.98214285714286  L 6.23076923076924 9.98214285714286  Z M 3.46153846153849 4.64285714285714  L 3.46153846153849 6.73214285714286  L 5.76923076923076 6.73214285714286  L 5.76923076923076 4.64285714285714  L 3.46153846153849 4.64285714285714  Z M 9 9.98214285714286  L 9 12.0714285714286  L 11.0769230769231 12.0714285714286  L 11.0769230769231 9.98214285714286  L 9 9.98214285714286  Z M 6.23076923076924 7.19642857142858  L 6.23076923076924 9.51785714285714  L 8.53846153846151 9.51785714285714  L 8.53846153846151 7.19642857142858  L 6.23076923076924 7.19642857142858  Z M 3.62379807692311 3.41322544642858  C 3.66947115384616 3.36728050595238  3.69230769230773 3.31287202380952  3.69230769230773 3.25  L 3.69230769230773 1.16071428571429  C 3.69230769230773 1.09784226190477  3.66947115384616 1.0434337797619  3.62379807692311 0.997488839285711  C 3.57812499999997 0.951543898809522  3.52403846153846 0.928571428571433  3.46153846153849 0.928571428571433  L 3 0.928571428571433  C 2.93750000000003 0.928571428571433  2.88341346153843 0.951543898809522  2.83774038461538 0.997488839285711  C 2.79206730769232 1.0434337797619  2.76923076923076 1.09784226190477  2.76923076923076 1.16071428571429  L 2.76923076923076 3.25  C 2.76923076923076 3.31287202380952  2.79206730769232 3.36728050595238  2.83774038461538 3.41322544642858  C 2.88341346153843 3.45917038690477  2.93750000000003 3.48214285714286  3 3.48214285714286  L 3.46153846153849 3.48214285714286  C 3.52403846153846 3.48214285714286  3.57812499999997 3.45917038690477  3.62379807692311 3.41322544642858  Z M 9 7.19642857142858  L 9 9.51785714285714  L 11.0769230769231 9.51785714285714  L 11.0769230769231 7.19642857142858  L 9 7.19642857142858  Z M 6.23076923076924 4.64285714285714  L 6.23076923076924 6.73214285714286  L 8.53846153846151 6.73214285714286  L 8.53846153846151 4.64285714285714  L 6.23076923076924 4.64285714285714  Z M 9 4.64285714285714  L 9 6.73214285714286  L 11.0769230769231 6.73214285714286  L 11.0769230769231 4.64285714285714  L 9 4.64285714285714  Z M 9.16225961538462 3.41322544642858  C 9.20793269230768 3.36728050595238  9.23076923076924 3.31287202380952  9.23076923076924 3.25  L 9.23076923076924 1.16071428571429  C 9.23076923076924 1.09784226190477  9.20793269230768 1.0434337797619  9.16225961538462 0.997488839285711  C 9.11658653846157 0.951543898809522  9.06249999999997 0.928571428571433  9 0.928571428571433  L 8.53846153846151 0.928571428571433  C 8.47596153846154 0.928571428571433  8.42187500000003 0.951543898809522  8.37620192307689 0.997488839285711  C 8.33052884615384 1.0434337797619  8.30769230769227 1.09784226190477  8.30769230769227 1.16071428571429  L 8.30769230769227 3.25  C 8.30769230769227 3.31287202380952  8.33052884615384 3.36728050595238  8.37620192307689 3.41322544642858  C 8.42187500000003 3.45917038690477  8.47596153846154 3.48214285714286  8.53846153846151 3.48214285714286  L 9 3.48214285714286  C 9.06249999999997 3.48214285714286  9.11658653846157 3.45917038690477  9.16225961538462 3.41322544642858  Z M 11.7259615384615 2.1328125  C 11.9086538461538 2.31659226190477  12 2.53422619047619  12 2.78571428571429  L 12 12.0714285714286  C 12 12.3229166666667  11.9086538461538 12.5405505952381  11.7259615384615 12.7243303571429  C 11.5432692307692 12.9081101190476  11.3269230769231 13  11.0769230769231 13  L 0.923076923076892 13  C 0.673076923076919 13  0.456730769230784 12.9081101190476  0.274038461538486 12.7243303571429  C 0.0913461538461888 12.5405505952381  0 12.3229166666667  0 12.0714285714286  L 0 2.78571428571429  C 0 2.53422619047619  0.0913461538461888 2.31659226190477  0.274038461538486 2.1328125  C 0.456730769230784 1.94903273809523  0.673076923076919 1.85714285714286  0.923076923076892 1.85714285714286  L 1.84615384615386 1.85714285714286  L 1.84615384615386 1.16071428571429  C 1.84615384615386 0.841517857142856  1.95913461538459 0.568266369047622  2.18509615384614 0.340959821428567  C 2.41105769230768 0.113653273809522  2.68269230769227 0  3 0  L 3.46153846153849 0  C 3.77884615384614 0  4.05048076923073 0.113653273809522  4.27644230769227 0.340959821428567  C 4.50240384615381 0.568266369047622  4.61538461538462 0.841517857142856  4.61538461538462 1.16071428571429  L 4.61538461538462 1.85714285714286  L 7.38461538461538 1.85714285714286  L 7.38461538461538 1.16071428571429  C 7.38461538461538 0.841517857142856  7.49759615384619 0.568266369047622  7.72355769230773 0.340959821428567  C 7.94951923076927 0.113653273809522  8.22115384615386 0  8.53846153846151 0  L 9 0  C 9.31730769230773 0  9.58894230769232 0.113653273809522  9.81490384615386 0.340959821428567  C 10.0408653846154 0.568266369047622  10.1538461538461 0.841517857142856  10.1538461538461 1.16071428571429  L 10.1538461538461 1.85714285714286  L 11.0769230769231 1.85714285714286  C 11.3269230769231 1.85714285714286  11.5432692307692 1.94903273809523  11.7259615384615 2.1328125  Z " fill-rule="nonzero" fill="#cccccc" stroke="none" transform="matrix(1 0 0 1 672 53 )" />
  </g>
</svg>