<?xml version="1.0" encoding="utf-8"?>
<svg version="1.1" xmlns:xlink="http://www.w3.org/1999/xlink" width="10px" height="11px" xmlns="http://www.w3.org/2000/svg">
  <g transform="matrix(1 0 0 1 -1461 -26 )">
    <path d="M 8.75000000488281 8.62499999511719  C 7.84375 9.65624999511719  6.56250000976562 10.1875  5.28125000488281 10.1875  C 4.15625000488281 10.1875  3.03125000488281 9.78125000488281  2.15624999511719 8.99999999511719  C 1.21874999511719 8.15624999511719  0.687499990234375 7  0.625 5.75000000488281  C 0.562500009765625 4.50000000976562  1 3.31250000488281  1.81250000488281 2.37500000488281  C 2.65625000488281 1.43750000488281  3.8125 0.90625  5.06249999511719 0.843749995117188  C 6.31249999023438 0.781249990234375  7.49999999511719 1.21874999511719  8.43749999511719 2.03125  C 8.875 2.40625  9.21874999023438 2.875  9.46874999511719 3.37499999511719  C 9.56249999511719 3.53125  9.49999999023437 3.71875  9.34375 3.78125000488281  C 9.18749999511719 3.84375000976563  8.99999999511719 3.8125  8.93750000488281 3.65624999511719  C 8.71875000976562 3.21874999023438  8.40625 2.81249999511719  8.03125 2.5  C 7.1875 1.75  6.15625 1.375  5.06249999511719 1.43750000488281  C 3.96874999023437 1.50000000976563  2.96875 1.96875000976563  2.24999999511719 2.78125  C 1.53124999023437 3.59374999023438  1.15624999023437 4.62500000488281  1.21874999511719 5.71874999511719  C 1.28125 6.8125  1.75 7.81249999023438  2.56250000488281 8.53124999511719  C 4.21875000976562 10.0312499951172  6.8125 9.90625  8.3125 8.21875  C 8.56250000488281 7.9375  8.75000000488281 7.65625  8.93750000488281 7.31249999511719  C 9.00000000976562 7.15624999023437  9.18750000976562 7.09375  9.34375 7.1875  C 9.50000000488281 7.25000000488281  9.56249999511719 7.43750000488281  9.46874999511719 7.59374999511719  C 9.28124999511719 7.96874999511719  9.03124999023437 8.3125  8.75000000488281 8.62499999511719  Z " fill-rule="nonzero" fill="#ffffff" stroke="none" transform="matrix(1 0 0 1 1461 26 )" />
  </g>
</svg>