<svg t="1603991637804" class="icon" viewBox="0 0 1024 1024" version="1.1" xmlns="http://www.w3.org/2000/svg" p-id="4361" width="200" height="200"><path d="M782.168178 864.881778c0 34.474667-27.306667 62.407111-61.041778 62.464H281.090844a61.838222 61.838222 0 0 1-61.098666-62.464V201.955556h562.119111v662.926222zM342.189511 89.884444a12.515556 12.515556 0 0 1 12.515556-12.8h293.546666a12.515556 12.515556 0 0 1 12.572445 12.8v37.660445H342.189511v-37.660445z m623.160889 37.660445h-231.708444v-37.660445c0-48.014222-38.343111-87.267556-85.333334-87.267555H354.705067c-46.990222 0-85.333333 39.253333-85.333334 87.267555v37.660445H36.866844A37.205333 37.205333 0 0 0 0.059733 165.091556a37.205333 37.205333 0 0 0 36.807111 37.660444h109.568v662.186667c0 76.060444 60.302222 137.671111 134.712889 137.671111h439.978667c74.353778 0 134.656-61.610667 134.656-137.671111V201.955556h109.568a37.205333 37.205333 0 0 0 36.807111-37.660445 36.465778 36.465778 0 0 0-36.807111-36.807111z m-464.213333 686.990222a37.205333 37.205333 0 0 0 36.750222-37.660444V376.490667a37.205333 37.205333 0 0 0-36.750222-37.660445 37.205333 37.205333 0 0 0-36.807111 37.660445v400.327111a37.205333 37.205333 0 0 0 36.807111 37.660444z m-171.463111 0a37.205333 37.205333 0 0 0 36.807111-37.660444V376.490667a37.205333 37.205333 0 0 0-36.807111-37.660445 37.205333 37.205333 0 0 0-36.807112 37.660445v400.327111c0.796444 20.821333 17.237333 37.660444 36.807112 37.660444z m342.926222 0a37.205333 37.205333 0 0 0 36.750222-37.660444V376.490667a37.205333 37.205333 0 0 0-36.807111-37.660445 37.205333 37.205333 0 0 0-36.750222 37.660445v400.327111a37.205333 37.205333 0 0 0 36.750222 37.660444z" fill="#F44C4C" p-id="4362"></path></svg>