<?xml version="1.0" encoding="utf-8"?>
<svg version="1.1" xmlns:xlink="http://www.w3.org/1999/xlink" width="20px" height="20px" xmlns="http://www.w3.org/2000/svg">
  <g transform="matrix(1 0 0 1 -160 -231 )">
    <path d="M 170 231  C 175.6 231  180 235.4  180 241  C 180 246.6  175.6 251  170 251  C 164.4 251  160 246.6  160 241  C 160 235.4  164.4 231  170 231  Z " fill-rule="nonzero" fill="#ffffff" stroke="none" />
    <path d="M 170 231.5  C 175.32 231.5  179.5 235.68  179.5 241  C 179.5 246.32  175.32 250.5  170 250.5  C 164.68 250.5  160.5 246.32  160.5 241  C 160.5 235.68  164.68 231.5  170 231.5  Z " stroke-width="1" stroke="#797979" fill="none" />
  </g>
</svg>