<?xml version="1.0" encoding="utf-8"?>
<svg version="1.1" xmlns:xlink="http://www.w3.org/1999/xlink" width="16px" height="17px" xmlns="http://www.w3.org/2000/svg">
  <g transform="matrix(1 0 0 1 -507 -18 )">
    <path d="M 15.9338842897727 8.27658102963655  C 15.8806160460205 3.82042037074519  12.3448561570385 0.218073387722432  7.96033058238636 0.152865606742527  L 7.89090909090909 0.152865606742526  C 7.87584253151705 0.152776646429898  7.86077574963754 0.152732165992086  7.84570893597423 0.152732165992086  C 3.54884229448538 0.152732165992086  0.0655436447810496 3.69282372846334  0.0655436447810496 8.05974797823733  C 0.0655436447810496 8.09171033453161  0.0657343367684569 8.12367239704919  0.0661157102272725 8.15563240319293  C 0.127677787148995 12.6238970811763  3.68261847995519 16.2278559480553  8.07933883522727 16.279347826087  L 8.15371899857954 16.279347826087  C 12.4511561145497 16.2793478473427  15.934454764254 12.7392562848715  15.934454764254 8.37233203509751  C 15.934454764254 8.34041415564197  15.9342646026077 8.30849656873876  15.9338842897727 8.27658102963655  Z M 14.9421487642045 8.28162054942256  C 14.9684397123462 10.1422141245351  14.2530159932522 11.9344866293594  12.9586776917614 13.2505928834069  C 11.6626770957553 14.5613744960578  9.90266875278604 15.2877518063463  8.07438016335228 15.2664031581182  C 4.21856698686443 15.2147820156862  1.10592022864745 12.0491499688299  1.05785123579545 8.1304347826087  C 1.05761356887231 8.10686727476621  1.05749473307043 8.08329868390259  1.05749473307043 8.05972993831849  C 1.05749473307043 4.24945633116177  4.09677825430393 1.16061927425599  7.84592447738861 1.16061927425599  C 7.86091947202678 1.16061927425599  7.87591442550928 1.16066976808958  7.89090909090909 1.16077075492527  L 7.95537191051136 1.16077075492527  C 11.7960592161405 1.22313449055266  14.8916735849072 4.37815223382344  14.9421487642045 8.28162054942256  Z " fill-rule="nonzero" fill="#aaaaaa" stroke="none" transform="matrix(1 0 0 1 507 18 )" />
  </g>
</svg>