<?xml version="1.0" encoding="utf-8"?>
<svg version="1.1" xmlns:xlink="http://www.w3.org/1999/xlink" width="13px" height="13px" xmlns="http://www.w3.org/2000/svg">
  <g transform="matrix(1 0 0 1 -122 -193 )">
    <path d="M 12.3340166015625 10.4565576171875  C 12.3340166015625 11.4918349609375  11.46330859375 12.3340673828125  10.3930810546875 12.3340673828125  L 2.6068935546875 12.3340673828125  C 1.536640625 12.3340673828125  0.6659580078125 11.491822265625  0.6659580078125 10.4565576171875  L 0.6659580078125 2.5434931640625  C 0.6659580078125 1.508203125  1.536666015625 0.665983398437499  2.6068935546875 0.665983398437499  L 10.3930810546875 0.665983398437499  C 11.463333984375 0.665983398437499  12.3340166015625 1.5082158203125  12.3340166015625 2.5434931640625  L 12.3340166015625 10.4565576171875  Z M 10.3931064453125 1.5634912109375  L 2.6069189453125 1.5634912109375  C 2.0315927734375 1.5634912109375  1.5634912109375 2.0031044921875  1.5634912109375 2.543455078125  L 1.5634912109375 10.45651953125  C 1.5634912109375 10.9968828125  2.0315546875 11.4364833984375  2.6069189453125 11.4364833984375  L 10.3931064453125 11.4364833984375  C 10.9684326171875 11.4364833984375  11.4365341796875 10.9968828125  11.4365341796875 10.45651953125  L 11.4365341796875 2.543455078125  C 11.4365341796875 2.0031044921875  10.968470703125 1.5634912109375  10.3931064453125 1.5634912109375  Z " fill-rule="nonzero" fill="#7f7f7f" stroke="none" transform="matrix(1 0 0 1 122 193 )" />
  </g>
</svg>