<?xml version="1.0" encoding="utf-8"?>
<svg version="1.1" xmlns:xlink="http://www.w3.org/1999/xlink" width="18px" height="18px" xmlns="http://www.w3.org/2000/svg">
  <g transform="matrix(1 0 0 1 -160 -226 )">
    <path d="M 169 226  C 174.04 226  178 229.96  178 235  C 178 240.04  174.04 244  169 244  C 163.96 244  160 240.04  160 235  C 160 229.96  163.96 226  169 226  Z " fill-rule="nonzero" fill="#ffffff" stroke="none" />
    <path d="M 169 226.5  C 173.76 226.5  177.5 230.24  177.5 235  C 177.5 239.76  173.76 243.5  169 243.5  C 164.24 243.5  160.5 239.76  160.5 235  C 160.5 230.24  164.24 226.5  169 226.5  Z " stroke-width="1" stroke="#797979" fill="none" />
  </g>
</svg>