<?xml version="1.0" encoding="utf-8"?>
<svg version="1.1" xmlns:xlink="http://www.w3.org/1999/xlink" width="19px" height="19px" xmlns="http://www.w3.org/2000/svg">
  <g transform="matrix(1 0 0 1 -155 -150 )">
    <path d="M 164.5 150  C 169.82 150  174 154.18  174 159.5  C 174 164.82  169.82 169  164.5 169  C 159.18 169  155 164.82  155 159.5  C 155 154.18  159.18 150  164.5 150  Z " fill-rule="nonzero" fill="#ffffff" stroke="none" />
    <path d="M 164.5 150.5  C 169.54 150.5  173.5 154.46  173.5 159.5  C 173.5 164.54  169.54 168.5  164.5 168.5  C 159.46 168.5  155.5 164.54  155.5 159.5  C 155.5 154.46  159.46 150.5  164.5 150.5  Z " stroke-width="1" stroke="#aaaaaa" fill="none" />
  </g>
</svg>