<?xml version="1.0" encoding="utf-8"?>
<svg version="1.1" xmlns:xlink="http://www.w3.org/1999/xlink" width="18px" height="10px" xmlns="http://www.w3.org/2000/svg">
  <g transform="matrix(1 0 0 1 -513 -106 )">
    <path d="M 17.261594666543 1.83270933341797  L 9.81395733339844 9.29752000003906  C 9.57370133337891 9.53777600005859  9.24766400003906 9.76087999994141  8.93875733349609 9.69222933341797  C 8.62987200011719 9.74370666681641  8.338138666875 9.50345066679687  8.09790400001953 9.29752000003906  L 0.667418666660156 1.83270933341797  C 0.289882666757812 1.45519466685547  0.289882666757812 0.837402666757812  0.667418666660156 0.459866666679687  C 1.0449546665625 0.0823306666015622  1.66272533332031 0.0823520001171874  2.04024000005859 0.459866666679687  L 8.95593066679687 7.56431466669922  L 15.8887733334961 0.459888000019533  C 16.2662880000586 0.0823520001171891  16.8840800001562 0.0823520001171891  17.261594666543 0.459888000019533  C 17.6391093329297 0.837423999921876  17.6391306664453 1.45519466667969  17.261594666543 1.83270933341797  Z " fill-rule="nonzero" fill="#d7d7d7" stroke="none" transform="matrix(1 0 0 1 513 106 )" />
  </g>
</svg>