<?xml version="1.0" encoding="utf-8"?>
<svg version="1.1" xmlns:xlink="http://www.w3.org/1999/xlink" width="18px" height="18px" xmlns="http://www.w3.org/2000/svg">
  <g transform="matrix(1 0 0 1 -469 -20 )">
    <path d="M 17.3861413043478 17.3861413043478  C 17.2669123839201 17.5144272715172  17.0990366199993 17.5863740274832  16.9239130434783 17.5842391304348  C 16.7487894669572 17.5863740274832  16.5809137030364 17.5144272715172  16.4616847826087 17.3861413043478  L 0.613858695652175 1.5383152173913  C 0.491268138799711 1.41572466053884  0.422397481087871 1.24945618464136  0.422397481087871 1.07608695652174  C 0.422397481087871 0.715064228114722  0.715064228114723 0.42239748108787  1.07608695652174 0.42239748108787  C 1.24945618464136 0.42239748108787  1.41572466053884 0.49126813879971  1.53831521739131 0.613858695652173  L 17.3861413043478 16.4616847826087  C 17.51381829276 16.5815119541593  17.5862447334267 16.7488131736559  17.5862447334267 16.9239130434783  C 17.5862447334267 17.0990129133007  17.51381829276 17.2663141327972  17.3861413043478 17.3861413043478  Z " fill-rule="nonzero" fill="#4d4d4d" stroke="none" transform="matrix(1 0 0 1 469 20 )" />
  </g>
</svg>