<?xml version="1.0" encoding="utf-8"?>
<svg version="1.1" xmlns:xlink="http://www.w3.org/1999/xlink" width="18px" height="18px" xmlns="http://www.w3.org/2000/svg">
  <g transform="matrix(1 0 0 1 -469 -20 )">
    <path d="M 1.5383152173913 17.3861413043478  C 1.41908629696357 17.5144272715172  1.25121053304281 17.5863740274832  1.07608695652174 17.5842391304348  C 0.90096338000067 17.5863740274832  0.733087616079908 17.5144272715172  0.613858695652173 17.3861413043478  C 0.486181707240012 17.2663141327972  0.413755266573328 17.0990129133007  0.413755266573328 16.9239130434783  C 0.413755266573328 16.7488131736559  0.48618170724001 16.5815119541593  0.613858695652174 16.4616847826087  L 16.4616847826087 0.613858695652175  C 16.5842753394612 0.491268138799712  16.7505438153586 0.422397481087872  16.9239130434783 0.422397481087872  C 17.2849357718853 0.422397481087872  17.5776025189121 0.715064228114723  17.5776025189121 1.07608695652174  C 17.5776025189121 1.24945618464136  17.5087318612003 1.41572466053884  17.3861413043478 1.53831521739131  L 1.5383152173913 17.3861413043478  Z " fill-rule="nonzero" fill="#4d4d4d" stroke="none" transform="matrix(1 0 0 1 469 20 )" />
  </g>
</svg>