<?xml version="1.0" encoding="utf-8"?>
<svg version="1.1" xmlns:xlink="http://www.w3.org/1999/xlink" width="16px" height="15px" xmlns="http://www.w3.org/2000/svg">
  <g transform="matrix(1 0 0 1 -25 -18 )">
    <path d="M 2.59061288246539 3.86873041029051  C 2.5881309701713 3.86873041029051  2.5856490870453 3.86874636343935  2.58316740808823 3.86877826861213  L 2.06515837316176 3.85859727711397  C 1.1662415391927 3.83867725855284  0.420118412038576 4.50535771938184  0.398190036764706 5.3480769330193  L 0.398190036764706 12.5226244284237  C 0.398190036764706 13.6471861395186  1.37060325265077 14.5588235294118  2.5701357444853 14.5588235294118  C 3.76966823631982 14.5588235294118  4.74208145220588 13.6471861395186  4.74208145220588 12.5226244284237  C 4.74208145220588 12.5226244284237  4.74208145220588 12.5226244284237  5 12.5226244284237  L 5 2.33144795783548  C 4.74208146743432 2.05030753658772  4.9851847700318 1.8223982019761  5.28506788602941 1.8223982019761  L 13.9728506893382 1.83156108398438  C 14.2727338053359 1.83156109826103  14.5158370955882 2.05947044444617  14.5158370955882 2.34061086569394  L 14.5158370955882 12.5226244284237  C 14.5158370955882 12.8037648496715  14.2727338053358 13.0316741958566  13.9728506893382 13.0316742101333  L 6.37104072610294 13.0316742101333  C 6.07103523900366 13.0316741972082  5.82793193194587 13.2595835475749  5.82793193194587 13.5407239789177  C 5.82793193194587 13.8218644102606  6.07103523900366 14.0497737606273  6.3709183657694 14.0497737606273  L 13.9728506893382 14.0497737477022  C 14.872500054407 14.0497737477022  15.6018099632353 13.3660457081757  15.6018099632353 12.5226244284237  L 15.6018099632353 2.34061086569394  C 15.601810762166 1.49798412933612  14.8738236818612 0.814585045440207  13.9750226286765 0.813461546415443  L 5.28723982536765 0.803280554917279  C 5.28651571581706 0.803279649619441  5.28579160570439 0.803279196970372  5.28506749550992 0.803279196970372  C 4.38541813044113 0.803279196970372  3.65610822161286 1.48700723649688  3.65610822161286 2.33042851624887  C 3.65610822161286 2.3307683301392  3.65610834259486 2.33110814402085  3.65610858455883 2.33144795783548  L 3.65610858455883 12.5226244284237  C 3.65610858455883 13.0849052768328  3.16990198278834 13.5407239659926  2.5701357444853 13.5407239659926  C 1.97036950618225 13.5407239659926  1.48416290441176 13.0849052768328  1.48416290441176 12.5226244284237  L 1.48416290441177 5.38472851275276  C 1.48529959723691 5.10322079559747  1.7290403217671 4.87557724374967  2.02931737153787 4.87557724374967  C 2.03293885131174 4.87557724374967  2.03656024118834 4.87561107452698  2.04018100183823 4.8756787310432  L 2.55710408088235 4.88585972254136  C 2.56826036670893 4.88650640247148  2.57943529210141 4.88682997370963  2.59061288246539 4.88682997370963  C 2.89049600923113 4.88682997370963  3.13359931628892 4.65892062334296  3.13359931628892 4.37778019200007  C 3.13359931628892 4.09663976065719  2.89049600923113 3.86873041029051  2.59061288246539 3.86873041029051  Z " fill-rule="nonzero" fill="#ffffff" stroke="none" transform="matrix(1 0 0 1 25 18 )" />
  </g>
</svg>