<?xml version="1.0" encoding="utf-8"?>
<svg version="1.1" xmlns:xlink="http://www.w3.org/1999/xlink" width="8px" height="8px" xmlns="http://www.w3.org/2000/svg">
  <g transform="matrix(1 0 0 1 -31 -22 )">
    <path d="M 0.683760685763886 0.341880329861112  L 3.76068375868056 0.341880329861112  C 4.04390671173709 0.341880329861112  4.27350427951389 0.571477897637912  4.27350427951389 0.854700850694446  C 4.27350427951389 1.13792380375098  4.04390671173709 1.36752137152778  3.76068375868056 1.36752137152778  L 0.68376068576389 1.36752137152778  C 0.400537732707356 1.36752137152778  0.170940164930556 1.13792380375098  0.170940164930556 0.854700850694446  C 0.170940164930556 0.571477897637912  0.400537732707356 0.341880329861112  0.68376068576389 0.341880329861112  Z M 0.171055727471835 3.93162393663195  C 0.171055727471835 3.64844611250232  0.40058286882433 3.41886724207898  0.683760685763886 3.41880342881944  L 6.83760683159723 3.41880342881944  C 7.12094534719504 3.41880341579861  7.35054291497184 3.64840098357541  7.35054291497184 3.93162393663195  C 7.35054291497184 4.21484688968848  7.12094534719504 4.44444445746528  6.8377223941385 4.44444445746528  L 0.68376068576389 4.44444444444445  C 0.40058286882433 4.44438063118491  0.171055727471835 4.21480176076157  0.171055727471835 3.93162393663195  Z M 0.683760685763886 6.49572650173611  L 6.83760683159723 6.49572650173612  C 7.12094534719908 6.49572648871528  7.35054291497588 6.72532405649208  7.35054291497588 7.00854700954861  C 7.35054291497588 7.29176996260514  7.12094534719908 7.52136753038195  6.83772239414255 7.52136753038195  L 0.68376068576389 7.52136751736111  C 0.400422170162038 7.52136753038195  0.170824602385238 7.29176996260514  0.170824602385238 7.00854700954861  C 0.170824602385238 6.72532405649208  0.400422170162038 6.49572648871528  0.683645123218572 6.49572648871528  Z " fill-rule="nonzero" fill="#ffffff" stroke="none" transform="matrix(1 0 0 1 31 22 )" />
  </g>
</svg>