<?xml version="1.0" encoding="utf-8"?>
<svg version="1.1" xmlns:xlink="http://www.w3.org/1999/xlink" width="9px" height="5px" xmlns="http://www.w3.org/2000/svg">
  <g transform="matrix(1 0 0 1 -183 -23 )">
    <path d="M 7.84999999609374 4.90000000292969  C 7.74999999414064 4.95000000390625  7.59999999999999 5.00000000488281  7.49999999804686 4.99999999609375  C 7.34999999511717 4.99999999609375  7.20000000097656 4.94999999511719  7.09999999902342 4.85000000195312  L 4.34999999804688 1.6  C 4.24999999609375 1.54999999902344  4.1999999951172 1.49999999804687  4.05000000097655 1.49999999804687  C 4 1.49999999804687  3.84999999707031 1.54999999902344  3.79999999609376 1.6  L 0.900000000976576 4.80000000097656  C 0.699999997070307 5.00000000488281  0.400000000000006 5.00000000488281  0.199999996093737 4.85000000195313  C 0 4.64999999804688  0 4.35000000097656  0.150000003906257 4.14999999707031  L 3.04999999902344 0.949999996093752  C 3.29999999511719 0.649999999023436  3.7000000029297 0.499999996093749  4.10000000195313 0.499999996093749  C 4.50000000097657 0.499999996093749  4.84999999902345 0.699999999999999  5.14999999609375 0.999999997070312  L 7.89999999707032 4.19999999804688  C 8.10000000097656 4.40000000195312  8.05000000000001 4.69999999902344  7.84999999609374 4.90000000292969  Z " fill-rule="nonzero" fill="#ffffff" stroke="none" transform="matrix(1 0 0 1 183 23 )" />
  </g>
</svg>