<?xml version="1.0" encoding="utf-8"?>
<svg version="1.1" xmlns:xlink="http://www.w3.org/1999/xlink" width="45px" height="45px" xmlns="http://www.w3.org/2000/svg">
  <g transform="matrix(1 0 0 1 -26 -9 )">
    <path d="M 48.5 9  C 61.1 9  71 18.9  71 31.5  C 71 44.1  61.1 54  48.5 54  C 35.9 54  26 44.1  26 31.5  C 26 18.9  35.9 9  48.5 9  Z " fill-rule="nonzero" fill="#ffffff" stroke="none" fill-opacity="0" />
    <path d="M 48.5 9.5  C 60.82 9.5  70.5 19.18  70.5 31.5  C 70.5 43.82  60.82 53.5  48.5 53.5  C 36.18 53.5  26.5 43.82  26.5 31.5  C 26.5 19.18  36.18 9.5  48.5 9.5  Z " stroke-width="1" stroke="#ffffff" fill="none" />
  </g>
</svg>