<?xml version="1.0" encoding="utf-8"?>
<svg version="1.1" xmlns:xlink="http://www.w3.org/1999/xlink" width="17px" height="10px" xmlns="http://www.w3.org/2000/svg">
  <g transform="matrix(1 0 0 1 -375 -133 )">
    <path d="M 16.3026171850684 2.50866992600586  L 9.26873748154297 9.55876888892578  C 9.04182903708008 9.78567733338867  8.73390488892578 9.99638666661133  8.44215970385742 9.93154992600586  C 8.15043466677734 9.98016740754883  7.8749087409375 9.75325896308594  7.64802044446289 9.55876888892578  L 0.630339851845703 2.50866992600586  C 0.273778074160156 2.15212829647461  0.273778074160156 1.56865807416016  0.630339851845703 1.21209629630859  C 0.98690162953125 0.855534518457031  1.57035170369141 0.855554666777343  1.92689333338867 1.21209629630859  L 8.45837896308594 7.92185274077148  L 15.0060637038574 1.21211644446289  C 15.3626053333887 0.855554666777345  15.9460755557031 0.855554666777345  16.3026171850684 1.21211644446289  C 16.6591588144336 1.56867822214844  16.6591789627539 2.1521282963086  16.3026171850684 2.50866992600586  Z " fill-rule="nonzero" fill="#aaaaaa" stroke="none" transform="matrix(1 0 0 1 375 133 )" />
  </g>
</svg>