<?xml version="1.0" encoding="utf-8"?>
<svg version="1.1" xmlns:xlink="http://www.w3.org/1999/xlink" width="9px" height="10px" xmlns="http://www.w3.org/2000/svg">
  <g transform="matrix(1 0 0 1 -1475 -47 )">
    <path d="M 4.84375 7.078125  C 4.84375 7.2671875  4.6890625 7.421875  4.5 7.421875  C 4.3109375 7.421875  4.15625 7.2671875  4.15625 7.078125  L 4.15625 0.546875  L 4.84375 0.546875  L 4.84375 7.078125  Z M 8.625 8.96875  C 8.625 9.1578125  8.4703125 9.3125  8.28125 9.3125  L 0.71875 9.3125  C 0.5296875 9.3125  0.375 9.1578125  0.375 8.96875  C 0.375 8.7796875  0.5296875 8.625  0.71875 8.625  L 8.28125 8.625  C 8.4703125 8.625  8.625 8.7796875  8.625 8.96875  Z " fill-rule="nonzero" fill="#ffffff" stroke="none" transform="matrix(1 0 0 1 1475 47 )" />
  </g>
</svg>