<?xml version="1.0" encoding="utf-8"?>
<svg version="1.1" xmlns:xlink="http://www.w3.org/1999/xlink" width="15px" height="3px" xmlns="http://www.w3.org/2000/svg">
  <g transform="matrix(1 0 0 1 -616 -205 )">
    <path d="M 1.24999999511719 0.249999985351561  L 13.7500000048828 0.249999985351561  C 14.4403558975779 0.249999985351561  14.9999999668477 0.809644054621401  14.9999999668477 1.5  C 14.9999999668477 2.1903559453786  14.4403558975779 2.75000001464844  13.7499999521993 2.75000001464844  L 1.24999999511719 2.75000001464844  C 0.559644102422144 2.75000001464844  0 2.1903559453786  0 1.5  C 0 0.809644054621401  0.559644102422144 0.249999985351561  1.25000004780074 0.249999985351561  Z M 13.7500000048828 2.75000001464844  L 1.24999999511719 2.75000001464844  C 1.94035588781223 2.75000001464844  2.49999995708206 2.1903559453786  2.49999995708206 1.5  C 2.49999995708206 0.809644054621401  1.94035588781223 0.249999985351561  1.24999994243363 0.249999985351561  L 13.7500000048828 0.249999985351561  C 13.0596441121878 0.249999985351561  12.5000000429179 0.809644054621401  12.5000000429179 1.5  C 12.5000000429179 2.1903559453786  13.0596441121878 2.75000001464844  13.7500000575664 2.75000001464844  Z " fill-rule="nonzero" fill="#409eff" stroke="none" transform="matrix(1 0 0 1 616 205 )" />
  </g>
</svg>