<?xml version="1.0" encoding="utf-8"?>
<svg version="1.1" xmlns:xlink="http://www.w3.org/1999/xlink" width="3px" height="15px" xmlns="http://www.w3.org/2000/svg">
  <g transform="matrix(1 0 0 1 -622 -199 )">
    <path d="M 2.75000001464844 1.24999999511719  L 2.75000001464844 13.7500000048828  C 2.75000001464844 14.4403558975779  2.1903559453786 14.9999999668477  1.5 14.9999999668477  C 0.80964407519561 14.9999999668477  0.250000014447888 14.4403559296872  0.249999985351561 13.7500000048828  L 0.249999985351561 1.24999999511719  C 0.250000014447888 0.559644070312794  0.80964407519561 0  1.5 0  C 2.1903559453786 0  2.75000001464844 0.559644102422144  2.75000001464844 1.25000004780074  Z M 0.249999985351561 13.7500000048828  L 0.249999985351561 1.24999999511719  C 0.250000014447888 1.94035591992158  0.80964407519561 2.49999995708206  1.5 2.49999995708206  C 2.1903559453786 2.49999995708206  2.75000001464844 1.94035588781223  2.75000001464844 1.24999994243363  L 2.75000001464844 13.7500000048828  C 2.75000001464844 13.0596441121878  2.1903559453786 12.5000000429179  1.5 12.5000000429179  C 0.80964407519561 12.5000000429179  0.250000014447888 13.0596440800784  0.249999985351561 13.7500000048828  Z " fill-rule="nonzero" fill="#409eff" stroke="none" transform="matrix(1 0 0 1 622 199 )" />
  </g>
</svg>