<?xml version="1.0" encoding="utf-8"?>
<svg version="1.1" xmlns:xlink="http://www.w3.org/1999/xlink" width="31px" height="31px" xmlns="http://www.w3.org/2000/svg">
  <g transform="matrix(1 0 0 1 -608 -191 )">
    <path d="M 15.5000002235174 30.5000000048828  C 23.784271473676 30.5000000048828  30.5000002284002 23.7842712501586  30.5000002284002 15.5  C 30.5000002284002 7.21572874984139  23.784271473676 0.499999995117187  15.5000002235174 0.499999995117187  C 7.21572874984139 0.49999999511719  0.499999995117187 7.2157287498414  0.499999995117187 15.5  C 0.499999995117187 23.7842712501586  7.21572874984139 30.5000000048828  15.5 30.5000000048828  Z M 15.4999997365822 28.0000000097656  C 8.59644035830387 28.0000000097656  2.99999972681657 22.4035593782783  2.99999972681657 15.5  C 2.99999972681657 8.59644062172167  8.59644035830387 2.99999999023437  15.4999997365822 2.99999999023437  C 22.4035593782783 2.99999999023437  28.0000000097656 8.59644062172168  28.0000000097656 15.5  C 28.0000000097656 22.4035593782783  22.4035593782783 28.0000000097656  15.5 28.0000000097656  Z " fill-rule="nonzero" fill="#409eff" stroke="none" transform="matrix(1 0 0 1 608 191 )" />
  </g>
</svg>