<?xml version="1.0" encoding="utf-8"?>
<svg version="1.1" xmlns:xlink="http://www.w3.org/1999/xlink" width="29px" height="29px" xmlns="http://www.w3.org/2000/svg">
  <g transform="matrix(1 0 0 1 -648 -192 )">
    <path d="M 24.089111328125 24.094560546875  C 21.444423828125 26.739853515625  17.970546875 28.0625  14.4963671875 28.0625  C 11.02279296875 28.0625  7.54861328125 26.739853515625  4.904228515625 24.094560546875  C -0.384843750000001 18.803974609375  -0.384843750000001 10.19572265625  4.904228515625 4.90513671875  C 10.192998046875 -0.384843749999998  18.8000390625 -0.385751953124999  24.08880859375 4.90513671875  C 26.65115234375 7.4680859375  28.0625 10.875361328125  28.0625 14.5  C 28.0625 18.1243359375  26.65115234375 21.5319140625  24.089111328125 24.094560546875  Z M 22.96021484375 6.034033203125  C 20.627041015625 3.699951171875  17.56185546875 2.53291015625  14.4963671875 2.53291015625  C 11.431484375 2.53291015625  8.366298828125 3.699951171875  6.03251953125 6.034033203125  C 1.36556640625 10.702197265625  1.36556640625 18.297802734375  6.03251953125 22.965966796875  C 10.699775390625 27.634130859375  18.29326171875 27.632919921875  22.96021484375 22.965966796875  C 25.22103515625 20.704541015625  26.466181640625 17.6980859375  26.466181640625 14.5  C 26.466181640625 11.3019140625  25.22103515625 8.295458984375  22.96021484375 6.034033203125  Z " fill-rule="nonzero" fill="#d9001b" stroke="none" transform="matrix(1 0 0 1 648 192 )" />
  </g>
</svg>