<?xml version="1.0" encoding="utf-8"?>
<svg version="1.1" xmlns:xlink="http://www.w3.org/1999/xlink" width="23px" height="16px" xmlns="http://www.w3.org/2000/svg">
  <g transform="matrix(1 0 0 1 -579 -80 )">
    <path d="M 22.4704617630892 2.85466956846444  L 12.5808431257219 14.9814118008297  C 12.2618103762406 15.3717127357274  11.8288697342567 15.7341498849623  11.4186766770498 15.6226254305334  C 11.008511947868 15.7062514434106  10.6211231317218 15.3159505085129  10.3021187102656 14.9814118008297  L 0.435275985467027 2.85466956846444  C -0.066049051440334 2.24138903734375  -0.066049051440334 1.23777291457974  0.435275985467027 0.624457726713361  C 0.936601022374387 0.0111425388469831  1.75693048073797 0.0111771955926715  2.25822718962029 0.624457726713361  L 11.4414809181104 12.1657832133351  L 20.6475105594028 0.624492383173494  C 21.1488072680517 0.0111771955926754  21.9691650546737 0.0111771955926754  22.4704617630892 0.624492383173494  C 22.9717584715047 1.23780757075431  22.9717867999966 2.24138903705819  22.4704617630892 2.85466956846444  Z " fill-rule="nonzero" fill="#d7d7d7" stroke="none" transform="matrix(1 0 0 1 579 80 )" />
  </g>
</svg>