<?xml version="1.0" encoding="utf-8"?>
<svg version="1.1" xmlns:xlink="http://www.w3.org/1999/xlink" width="38px" height="23px" xmlns="http://www.w3.org/2000/svg">
  <g transform="matrix(1 0 0 1 -859 -116 )">
    <path d="M 37.3333333203125 11.2975  C 37.3333333203125 5.15  32.35 0.1666666796875  26.2025 0.1666666796875  L 11.7975 0.1666666796875  C 5.65 0.1666666796875  0.6666666796875 5.15  0.6666666796875 11.2975  C 0.6666666796875 17.445  5.65 22.4283333203125  11.7975 22  L 26.2025 22  C 32.35 22.4283333203125  37.3333333203125 17.445  37.3333333203125 11.2975  Z M 34.1191666796875 11.2975  C 34.1191666796875 15.7683333203125  30.495 19.3925  26.0241666796875 19.3925  C 21.553333359375 19.3925  17.9291666796875 15.7683333203125  17.9291666796875 11.2975  C 17.9291666796875 6.8266666796875  21.553333359375 3.2025  26.0241666796875 3.2025  C 30.495 3.2025  34.1191666796875 6.8266666796875  34.1191666796875 11.2975  Z " fill-rule="nonzero" fill="#0367fd" stroke="none" transform="matrix(1 0 0 1 859 116 )" />
  </g>
</svg>