<?xml version="1.0" encoding="utf-8"?>
<svg version="1.1" xmlns:xlink="http://www.w3.org/1999/xlink" width="20px" height="20px" xmlns="http://www.w3.org/2000/svg">
  <g transform="matrix(1 0 0 1 -1489 -4 )">
    <path d="M 19.75 10  C 19.75 4.624  15.376 0.25  10 0.25  C 4.624 0.25  0.25 4.624  0.25 10  C 0.25 15.376  4.624 19.75  10 19.75  C 13.7239975301257 19.763838319186  17.1269335601651 17.6438045087857  18.756 14.295  C 18.8057512708164 14.1927578052655  18.8316043690537 14.0805418873814  18.8316043690537 13.9668376423772  C 18.8316043690537 13.5526240800041  18.4958179314268 13.2168376423772  18.0816043690537 13.2168376423772  C 17.7968922383249 13.2168376423772  17.5367301686383 13.3780481187732  17.41 13.633  C 16.0317694937019 16.467459859737  13.1517518371202 18.2619323996071  10 18.25  C 5.451 18.25  1.75 14.549  1.75 10  C 1.75 5.451  5.451 1.75  10 1.75  C 14.549 1.75  18.25 5.451  18.25 10  C 18.25 10.4142135623731  18.5857864376269 10.75  19 10.75  C 19.4142135623731 10.75  19.75 10.4142135623731  19.75 10  Z " fill-rule="nonzero" fill="#ffffff" stroke="none" transform="matrix(1 0 0 1 1489 4 )" />
  </g>
</svg>