<?xml version="1.0" encoding="utf-8"?>
<svg version="1.1" xmlns:xlink="http://www.w3.org/1999/xlink" width="14px" height="8px" xmlns="http://www.w3.org/2000/svg">
  <g transform="matrix(1 0 0 1 -1492 -9 )">
    <path d="M 7.53958 0.403880000000001  C 7.23667159393791 0.116979300012831  6.7623084060621 0.116979300012831  6.4594 0.40388  L 0.3904 6.47288  C 0.246888705182924 6.61639129481708  0.166264899264294 6.81103438051597  0.166264899264294 7.01399  C 0.166264899264294 7.43662319901906  0.50887680098094 7.77923510073571  0.931509999999999 7.77923510073571  C 1.13446561948403 7.77923510073571  1.32910870518292 7.69861129481708  1.47262 7.5551  L 7 2.0267  L 12.52738 7.5551  C 12.6705517064749 7.69886044130504  12.8650879054789 7.77967389170968  13.06798 7.77967389170968  C 13.2708720945211 7.77967389170968  13.4654082935251 7.69886044130504  13.60858 7.5551  C 13.7521513812088 7.41162060262796  13.8328166803305 7.21696556250059  13.8328166803305 7.01399  C 13.8328166803305 6.81101443749941  13.7521513812088 6.61635939737204  13.60858 6.47288  L 7.53958 0.403880000000001  Z " fill-rule="nonzero" fill="#ffffff" stroke="none" transform="matrix(1 0 0 1 1492 9 )" />
  </g>
</svg>