<?xml version="1.0" encoding="utf-8"?>
<svg version="1.1" xmlns:xlink="http://www.w3.org/1999/xlink" width="12px" height="11px" xmlns="http://www.w3.org/2000/svg">
  <g transform="matrix(1 0 0 1 -14 -53 )">
    <path d="M 11.154296875 9.634765625  C 11.1537694607812 10.1026946087377  10.7745696087377 10.4818944607812  10.306640625 10.482421875  L 1.693359375 10.482421875  C 1.22543039126234 10.4818944607812  0.846230539218809 10.1026946087377  0.845703125 9.634765625  L 0.845703125 1.021484375  C 0.846230539218809 0.553555391262343  1.22543039126234 0.174355539218809  1.693359375 0.173828125  L 10.306640625 0.173828125  C 10.7745696087377 0.174355539218809  11.1537694607812 0.553555391262343  11.154296875 1.021484375  L 11.154296875 9.634765625  Z M 10.306640625 0.501953125  L 1.693359375 0.501953125  C 1.40643018856447 0.501953125  1.173828125 0.734555188564471  1.173828125 1.021484375  L 1.173828125 9.634765625  C 1.173828125 9.92169481143553  1.40643018856447 10.154296875  1.693359375 10.154296875  L 10.306640625 10.154296875  C 10.5935698114355 10.154296875  10.826171875 9.92169481143553  10.826171875 9.634765625  L 10.826171875 1.021484375  C 10.826171875 0.734555188564471  10.5935698114355 0.501953125  10.306640625 0.501953125  Z " fill-rule="nonzero" fill="#000000" stroke="none" transform="matrix(1 0 0 1 14 53 )" />
  </g>
</svg>