<?xml version="1.0" encoding="utf-8"?>
<svg version="1.1" xmlns:xlink="http://www.w3.org/1999/xlink" width="9px" height="9px" xmlns="http://www.w3.org/2000/svg">
  <g>
    <path d="M 6.231640625 8.60888671875  C 5.68271484375 8.83984375  5.10048828125 8.9580078125  4.5 8.9580078125  C 3.89951171875 8.9580078125  3.31728515625 8.83984375  2.768359375 8.60888671875  C 2.23876953125 8.384375  1.762890625 8.0642578125  1.3546875 7.6560546875  C 0.946484375 7.2478515625  0.62529296875 6.77197265625  0.40185546875 6.2423828125  C 0.1708984375 5.69345703125  0.052734375 5.11123046875  0.052734375 4.5107421875  C 0.052734375 3.91025390625  0.1708984375 3.32802734375  0.40185546875 2.7791015625  C 0.6263671875 2.24951171875  0.946484375 1.7736328125  1.3546875 1.3654296875  C 1.762890625 0.9572265625  2.23876953125 0.63603515625  2.768359375 0.41259765625  C 3.31728515625 0.181640625  3.89951171875 0.0634765625  4.5 0.0634765625  C 5.10048828125 0.0634765625  5.68271484375 0.181640625  6.231640625 0.41259765625  C 6.76123046875 0.637109375  7.237109375 0.9572265625  7.6453125 1.3654296875  C 8.053515625 1.7736328125  8.37470703125 2.24951171875  8.59814453125 2.7791015625  C 8.8291015625 3.32802734375  8.947265625 3.91025390625  8.947265625 4.5107421875  C 8.947265625 5.11123046875  8.8291015625 5.69345703125  8.59814453125 6.2423828125  C 8.3736328125 6.77197265625  8.053515625 7.2478515625  7.6453125 7.6560546875  C 7.237109375 8.0642578125  6.76123046875 8.38544921875  6.231640625 8.60888671875  Z M 8.25009765625 4.5107421875  C 8.25009765625 2.44287109375  6.56787109375 0.76064453125  4.5 0.76064453125  C 2.43212890625 0.76064453125  0.74990234375 2.44287109375  0.74990234375 4.5107421875  C 0.74990234375 6.57861328125  2.43212890625 8.26083984375  4.5 8.26083984375  C 6.56787109375 8.26083984375  8.25009765625 6.57861328125  8.25009765625 4.5107421875  Z " fill-rule="nonzero" fill="#666666" stroke="none" />
  </g>
</svg>