<?xml version="1.0" encoding="utf-8"?>
<svg version="1.1" xmlns:xlink="http://www.w3.org/1999/xlink" width="108px" height="102px" xmlns="http://www.w3.org/2000/svg">
  <g transform="matrix(1 0 0 1 -16 -75 )">
    <path d="M 107 14.6056337794344  C 107.819999964844 6.67140218151765  101.372900378147 0.239436631409552  93.42 0.23943663140955  L 89.6520000234375 0.23943663140955  L 89.6520000234375 9.12253521126761  C 89.6520000234375 14.4120229432121  85.3539336323064 18.6999999766175  80.052000046875 18.6999999766175  C 74.7500663559748 18.6999999766175  70.4519999648438 14.4120229432121  70.4519999648438 9.12253521126761  L 70.4519999648438 1  L 37.5480000351563 1  L 37.5480000351563 9.12253521126761  C 37.5480000351563 14.4120229722681  33.2499336204152 18.7000000292281  27.9480000058594 18.7000000292281  C 22.6460663913035 18.7000000292281  18.3479999765625 14.4120229722681  18.3479999765625 9.12253521126761  L 18.3479999765625 0.23943663140955  L 14.58 0.23943663140955  C 6.62709962185283 0.239436631409552  0.180000035156249 6.67140218151765  0.180000035156249 14.6056337794344  C 0.180000035156249 14.6056337794344  0.18000003515625 14.6056337794344  1 14.6056337794344  L 1 87.6338028519751  C 0.18000003515625 95.5680344498919  6.62709962185284 102  14.58 102  L 93.42 102  C 101.372900378147 102  107.819999964844 95.5680344498919  107 87.6338028519751  L 107 14.6056337794344  Z M 103 34.2514084974692  L 103 88.4359155163402  C 103.846811743442 93.4422450894373  99.7821091605268 97.4974060699733  94.7639999882812 97  L 13.1639999765625 97  C 8.17403093993134 97.4581742879204  4.15285591396887 93.4144301421469  5 88.4359155163402  L 5 34.2514084974692  C 4.15318819863349 29.2450788832807  8.21789079843809 25.1899178388748  13.2360000117187 26  L 94.8360000234375 26  C 99.8541091955301 25.1899178966637  103.918811731314 29.2450789242196  103 34.2514084974692  Z " fill-rule="nonzero" fill="#3a77d9" stroke="none" transform="matrix(1 0 0 1 16 75 )" />
  </g>
</svg>