<?xml version="1.0" encoding="utf-8"?>
<svg version="1.1" xmlns:xlink="http://www.w3.org/1999/xlink" width="80px" height="27px" xmlns="http://www.w3.org/2000/svg">
  <g transform="matrix(1 0 0 1 -30 -121 )">
    <path d="M 18.2545454900569 23.6605263157895  L 18.2545454900569 26  L 1.2848485085227 26  L 1.2848485085227 23.9565789011102  L 10.2303030539773 14.2460526662726  C 11.2710295785368 13.1611073863513  12.1894312024182 11.9700619511673  12.9696970170455 10.6934210179379  C 13.4623830836152 9.81918257810896  13.7208942588232 8.8374627844519  13.7212121448864 7.83947369577509  C 13.771037729602 6.64403810441598  13.3353677084351 5.47778961218893  12.5090909090909 4.59473686523438  C 11.665475037698 3.73829304916215  10.4885671078217 3.27320214702721  9.27272723721589 3.31578949681332  C 7.86556912697936 3.2340321736443  6.48692957031207 3.7273215713922  5.46666665482958 4.67763155581826  C 4.51299989311089 5.71222343429801  4.02396016883606 7.07730613936665  4.10909090909089 8.46710525159336  L 0.812121164772758 8.46710525159336  C 0.725919716369224 6.35394533881314  1.56321516924089 4.30460096449047  3.11515149147726 2.8302631694593  C 4.79036678961943 1.33674025227102  7.00785950959256 0.560577576863756  9.27272723721589 0.674999965306343  C 11.3425351689444 0.564609400464578  13.3782482524156 1.22473440985782  14.9696969815341 2.52236845574629  C 16.3777098898477 3.77728246871239  17.1453914004187 5.57642655331509  17.0666666193182 7.43684205900494  C 17.0666666193182 9.9236841642681  15.4505050071023 12.8842105031867  12.2181817826705 16.3184210757607  L 5.29696967329545 23.6605263157895  L 18.2545454900569 23.6605263157895  Z M 37.9393939630681 11.3684210873253  L 37.9393939630681 15.4894736495168  C 37.9393939630681 19.2473683709395  37.2808080965909 22.0421052246094  35.9636363636364 23.8736842105263  C 34.5274646549005 25.7572813568104  32.2030441485411 26.7899139718699  29.8060606178978 26.6092105610094  C 27.4343350578945 26.7822156563688  25.1330311545498 25.776039774804  23.6848484730114 23.9328947484067  C 22.3595959161932 22.1486842066715  21.6727272372159 19.4802631463302  21.6242424360795 15.9276315673828  L 21.6242424360795 11.6052631347656  C 21.6242424360796 7.89473678813736  22.2828283025568 5.13157890881991  23.6000000355113 3.31578949681332  C 25.0536783799969 1.44261116617656  27.383033008168 0.42076907722951  29.7818181463068 0.603947403114718  C 32.1619557182266 0.448166952463246  34.4640500770421 1.46603374665472  35.9151515269887 3.31578949681332  C 37.2323232599432 5.0526315943668  37.9070707386363 7.73684212453741  37.9393939630681 11.3684210873253  Z M 34.6181818536932 16.3539473568565  L 34.6545454545454 11.0960526547081  C 34.7849175621504 9.05293733502912  34.3671021587908 7.01196410120476  33.44242421875 5.17500001156457  C 32.6609568234099 3.94292663437273  31.2506436411828 3.22899691580499  29.7696970170455 3.31578949681332  C 28.2985420892554 3.22913506756068  26.8990287031326 3.94468230441419  26.1333333096591 5.17500001156457  C 25.2336327641919 6.94414965283013  24.8161486383303 8.91008786031071  24.9212120738637 10.8828947599712  L 24.9212120738637 15.9868421052632  C 24.7785329248505 18.0688674995573  25.1964361558069 20.1510978127237  26.1333333096591 22.0263158241673  C 26.8817136226722 23.2851131912613  28.2807850346669 24.0368839367477  29.7696970170455 23.9802631578947  C 31.2358462197039 24.0718082008911  32.6341698812607 23.3659767095461  33.4060606178977 22.144736795847  C 34.3191347670388 20.350454187969  34.7369502671647 18.3543819188551  34.6181818536932 16.3539473568565  Z M 59.0909090909091 23.6368420590049  L 59.0909090909091 26  L 42.121212109375 26  L 42.121212109375 23.9565789011102  L 51.0909091264205 14.2460526662726  C 52.1316356138015 13.1611073811697  53.0500372018173 11.9700619461793  53.8303029829546 10.6934210179379  C 54.3229890866322 9.81918258771873  54.581500298632 8.83746279350923  54.5818182173295 7.83947369577509  C 54.6316438020452 6.64403810441598  54.1959737808783 5.47778961218893  53.3696969815341 4.59473686523438  C 52.5203824788694 3.73200277870967  51.3332577862485 3.26636234732415  50.1090909446023 3.31578949681332  C 48.6849492078162 3.2108547896323  47.2813988321101 3.69658893736328  46.2424242897727 4.65394740311471  C 45.2887574894923 5.6885392650621  44.7997177261627 7.05362197202328  44.8848484375 8.44342109888981  L 41.6484848721591 8.44342109888981  C 41.5622833931335 6.33026115039031  42.3995788484334 4.28091673228431  43.9515151988637 2.80657891267476  C 45.6267305139808 1.31305603322855  47.8442232319897 0.536893395990919  50.1090909446023 0.651315812602797  C 52.1788988261521 0.540925245524788  54.2146118649621 1.20105021558856  55.8060605823864 2.49868419896176  C 57.2140735592402 3.75359821645539  57.9817551126874 5.55274234824297  57.9030303267045 7.41315790630139  C 57.9030303267045 9.90000001156455  56.2868687144887 12.8605263157895  53.0545454900568 16.2947368189761  L 46.1333333806818 23.6368420590049  L 59.0909090909091 23.6368420590049  Z M 79.5030303267046 23.6486841873972  L 79.5030303267046 26  L 62.5333333451704 26  L 62.5333333451704 23.9565789011102  L 71.478787890625 14.2460526662726  C 72.5195144151845 13.1611073863513  73.4379160390659 11.9700619511673  74.2181818536932 10.6934210179379  C 74.7108679202629 9.81918257810896  74.9693790954709 8.8374627844519  74.9696969815341 7.83947369577509  C 75.0195225662498 6.64403810441598  74.5838525450828 5.47778961218893  73.7575757457387 4.59473686523438  C 72.905419915481 3.72883727474651  71.7131737282631 3.26292001474161  70.4848484730114 3.31578949681332  C 69.0776903627748 3.2340321736443  67.6990508061076 3.7273215713922  66.678787890625 4.67763155581826  C 65.7251211289063 5.71222343429801  78.1936571148588 3.28783244359155  78.2787878551136 4.67763155581826  L 62.0727272372159 8.46710525159336  C 61.992111457438 6.33857825783981  62.8480560198556 4.27816341734532  64.4242424005682 2.80657891267476  C 66.0772164151524 1.34108435839891  68.2547080876691 0.570982942675632  70.4848484730114 0.663157940995084  C 72.5546563906489 0.552767347205009  74.5903694724771 1.21289231887392  76.1818182173295 2.51052632735404  C 77.5898311548178 3.76544036407708  78.3575126681238 5.56458449319267  78.2787878551136 7.42500003469368  C 78.2787878551136 9.91184213995684  76.6626262428977 12.8723684441817  73.4303030184659 16.3065789473684  L 66.5090909090909 23.6486841873972  L 73.9531413722304 23.6486841873972  L 79.5030303267046 23.6486841873972  Z " fill-rule="nonzero" fill="#3a77d9" stroke="none" transform="matrix(1 0 0 1 30 121 )" />
  </g>
</svg>