<?xml version="1.0" encoding="utf-8"?>
<svg version="1.1" xmlns:xlink="http://www.w3.org/1999/xlink" width="20px" height="20px" xmlns="http://www.w3.org/2000/svg">
  <g transform="matrix(1 0 0 1 -213 -227 )">
    <path d="M 3.34264547413793 6.866796875  C 3.34264547413793 7.20128636853448  3.07186826508621 7.4717739762931  2.73737877155173 7.4717739762931  C 2.40317887931035 7.4717739762931  2.13211206896552 7.20099676724138  2.13211206896552 6.8665072737069  L 2.13211206896552 0.814709051724138  C 2.13211206896552 0.480219558189655  2.40317887931035 0.209442349137931  2.73737877155173 0.209442349137931  C 3.0715786637931 0.209442349137931  3.34264547413793 0.480219558189655  3.34264547413793 0.814709051724138  L 3.34264547413793 6.866796875  Z M 17.8678879310345 6.866796875  C 17.8675983297414 7.20128636853448  17.5968211206897 7.4717739762931  17.2626212284483 7.4717739762931  C 16.9284213362069 7.4717739762931  16.6573545258621 7.20099676724138  16.6573545258621 6.8665072737069  L 16.6573545258621 0.814709051724138  C 16.6573545258621 0.480219558189655  16.9284213362069 0.209442349137931  17.2626212284483 0.209442349137931  C 17.5968211206897 0.209442349137931  17.8678879310345 0.480219558189655  17.8678879310345 0.814709051724138  L 17.8678879310345 6.866796875  Z M 13.9339439655172 12.3133283943966  C 13.9339439655172 12.6481074892241  13.6628771551724 12.9185950969828  13.328677262931 13  L 1.22450161637931 13  C 0.890301724137931 12.9185950969828  0.619234913793103 12.647817887931  0.619234913793103 12.3133283943966  C 0.619234913793103 11.9788389008621  0.890301724137931 11.7080616918103  1.22450161637931 11.7080616918103  L 13.328677262931 11.7080616918103  C 13.6628771551724 11.7080616918103  13.9339439655172 11.9788389008621  13.9339439655172 12.3133283943966  Z M 19.3807650862069 18.9706829202586  C 19.3807650862069 19.3051724137931  19.1096982758621 19.5759496228448  18.7754983836207 19.5759496228448  L 1.22450161637931 19.5759496228448  C 0.890301724137931 19.5759496228448  0.619234913793103 19.3051724137931  0.619234913793103 18.9706829202586  C 0.619234913793103 18.6361934267241  0.890301724137931 18.3654162176724  1.22450161637931 18  L 18.7754983836207 18  C 19.1096982758621 18.3654162176724  19.3807650862069 18.6361934267241  19.3807650862069 18.9706829202586  Z " fill-rule="nonzero" fill="#0285bd" stroke="none" transform="matrix(1 0 0 1 213 227 )" />
  </g>
</svg>