<?xml version="1.0" encoding="utf-8"?>
<svg version="1.1" xmlns:xlink="http://www.w3.org/1999/xlink" width="30px" height="23px" xmlns="http://www.w3.org/2000/svg">
  <g transform="matrix(1 0 0 1 -208 -231 )">
    <path d="M 29.6935546875 21.0134754136029  C 29.69384765625 21.995771484375  28.87001953125 22.7945616957721  27.8572265625 22.7945616957721  L 2.1427734375 22.7945616957721  C 1.12998046875 22.7945616957721  0.30615234375 21.995771484375  0.30615234375 21.0137594784007  L 0.30615234375 2.01721019071691  C 0.30615234375 1.03519818474265  1.12998046875 0.236407973345589  2.1427734375 0.236407973345589  L 27.85693359375 0.236407973345589  C 28.8697265625 0.236407973345589  29.6935546875 1.03519818474265  29.6935546875 2.01721019071691  L 29.6935546875 21.0134754136029  Z M 2.1427734375 1.423798828125  C 1.8052734375 1.423798828125  1.53046875 1.68996754365809  2 2.01749425551471  L 2 21.0137594784007  C 1.53046875 21.3412861902574  1.8052734375 21.6074549057904  2.1427734375 21.6074549057904  L 27.85693359375 21.6074549057904  C 28.19443359375 21.6074549057904  28.46923828125 21.3412861902574  28 21.0137594784007  L 28 2.01721019071691  C 28.46923828125 1.68968347886029  28.19443359375 1.42351476332721  27.85693359375 1.42351476332721  L 2.1427734375 1.42351476332721  Z " fill-rule="nonzero" fill="#0285bd" stroke="none" transform="matrix(1 0 0 1 208 231 )" />
  </g>
</svg>