<?xml version="1.0" encoding="utf-8"?>
<svg version="1.1" xmlns:xlink="http://www.w3.org/1999/xlink" width="12px" height="5px" xmlns="http://www.w3.org/2000/svg">
  <g transform="matrix(1 0 0 1 -1178 -47 )">
    <path d="M 10.50221484375 3.3254453125  C 9.83994140625 3.98691015625  8.94451171875 4.322265625  7.8409921875 4.322265625  L 7.82675390625 4.322265625  C 4.5915703125 4.31393359375  0.417855468750001 4.32216015625  0.37608984375 4.322265625  L 0.37391015625 3.267578125  C 0.415710937500001 3.26747265625  4.591921875 3.25924609375  7.82949609375 3.267578125  L 7.84074609375 3.267578125  C 8.654859375 3.267578125  9.299484375 3.03600390625  9.7569375 2.57918359375  C 10.54978125 1.787359375  10.5703125 0.53846875  10.5703125 0.526093750000001  L 11.625 0.524687500000001  C 11.62510546875 0.593171875000001  11.61441796875 2.21468359375  10.50221484375 3.3254453125  Z " fill-rule="nonzero" fill="#cccccc" stroke="none" transform="matrix(1 0 0 1 1178 47 )" />
  </g>
</svg>