<?xml version="1.0" encoding="utf-8"?>
<svg version="1.1" xmlns:xlink="http://www.w3.org/1999/xlink" width="14px" height="14px" xmlns="http://www.w3.org/2000/svg">
  <g transform="matrix(1 0 0 1 -1247 -40 )">
    <path d="M 8.5859375 8.5859375  C 9.32351762820508 7.84835737179488  9.69230769230774 6.96073717948718  9.69230769230774 5.92307692307693  C 9.69230769230774 4.88541666666666  9.32351762820508 3.99779647435898  8.5859375 3.26021634615385  C 7.84835737179492 2.52263621794872  6.96073717948718 2.15384615384615  5.92307692307702 2.15384615384615  C 4.88541666666674 2.15384615384615  3.99779647435901 2.52263621794872  3.26021634615381 3.26021634615385  C 2.52263621794873 3.99779647435898  2.15384615384619 4.88541666666666  2.15384615384619 5.92307692307693  C 2.15384615384619 6.96073717948718  2.52263621794873 7.84835737179488  3.26021634615381 8.5859375  C 3.99779647435901 9.32351762820512  4.88541666666674 9.69230769230769  5.92307692307702 9.69230769230769  C 6.96073717948718 9.69230769230769  7.84835737179492 9.32351762820512  8.5859375 8.5859375  Z M 13.688701923077 12.1658653846154  C 13.896233974359 12.3733974358974  14 12.6258012820513  14 12.9230769230769  C 14 13.2147435897436  13.8934294871796 13.4671474358974  13.6802884615385 13.6802884615385  C 13.4671474358975 13.8934294871795  13.2147435897435 14  12.923076923077 14  C 12.6201923076923 14  12.3677884615385 13.8934294871795  12.1658653846154 13.6802884615385  L 9.28004807692298 10.8028846153846  C 8.27604166666674 11.4983974358974  7.15705128205127 11.8461538461539  5.92307692307702 11.8461538461539  C 5.12099358974353 11.8461538461539  4.35396634615381 11.6905048076923  3.62199519230774 11.3792067307692  C 2.89002403846155 11.0679086538461  2.25901442307702 10.6472355769231  1.72896634615381 10.1171875  C 1.19891826923083 9.58713942307693  0.778245192307736 8.95612980769231  0.466947115384642 8.22415865384615  C 0.155649038461547 7.4921875  0 6.72516025641025  0 5.92307692307693  C 0 5.12099358974359  0.155649038461547 4.35396634615385  0.466947115384642 3.62199519230769  C 0.778245192307736 2.89002403846153  1.19891826923083 2.25901442307692  1.72896634615381 1.72896634615385  C 2.25901442307702 1.19891826923077  2.89002403846155 0.778245192307693  3.62199519230774 0.466947115384627  C 4.35396634615381 0.155649038461533  5.12099358974353 0  5.92307692307702 0  C 6.72516025641028 0  7.4921875 0.155649038461533  8.22415865384619 0.466947115384627  C 8.95612980769226 0.778245192307693  9.58713942307702 1.19891826923077  10.1171875 1.72896634615385  C 10.647235576923 2.25901442307692  11.0679086538462 2.89002403846153  11.3792067307692 3.62199519230769  C 11.6905048076923 4.35396634615385  11.8461538461538 5.12099358974359  11.8461538461538 5.92307692307693  C 11.8461538461538 7.15705128205128  11.4983974358975 8.27604166666666  10.8028846153846 9.28004807692307  L 13.688701923077 12.1658653846154  Z " fill-rule="nonzero" fill="#cccccc" stroke="none" transform="matrix(1 0 0 1 1247 40 )" />
  </g>
</svg>