<?xml version="1.0" encoding="utf-8"?>
<svg version="1.1" xmlns:xlink="http://www.w3.org/1999/xlink" width="10px" height="9px" xmlns="http://www.w3.org/2000/svg">
  <g transform="matrix(1 0 0 1 -917 -26 )">
    <path d="M 0.03125 3.63749999677734  C 0.03125 1.64409374355469  1.82677083691406 0.028125  4.04166666308594 0.028125  C 6.2565625 0.028125  8.05208332617187 1.64409375322266  8.05208333691406 3.63749999677734  C 8.05208333691406 4.48539374355469  7.727125 5.265225  7.1833125 5.88129375322266  L 8.94904166308594 7.47086250322266  C 9.03157303362664 7.54776860120745  9.07770089091877 7.6505111845143  9.07770089091877 7.75743079860423  C 9.07770089091877 7.98524825968926  8.8724980663214 8.16993080182689  8.6193675540047 8.16993080182689  C 8.50056798279366 8.16993080182689  8.38640955689716 8.12841573026397  8.30095833691406 8.05413749677734  L 6.53477083691406 6.46498125  C 5.82626440294797 6.97245966078825  4.94716262461644 7.24816582507136  4.04166666308594 7.24687500322266  C 1.82677082617187 7.24687500322266  0.03125 5.63090625  0.03125 3.63749999677734  Z M 7.36458333691406 3.63749999677734  C 7.36458333691406 1.98584999033203  5.87683333691406 0.646875  4.04166666308594 0.646875  C 2.2065 0.646875  0.71875 1.98585  0.71875 3.63749999677734  C 0.71875 5.28914999355469  2.2065 6.62812500322266  4.04166666308594 6.62812500322266  C 5.87683332617187 6.62812500322266  7.36458333691406 5.28915000322266  7.36458333691406 3.63749999677734  Z " fill-rule="nonzero" fill="#999999" stroke="none" transform="matrix(1 0 0 1 917 26 )" />
  </g>
</svg>