<?xml version="1.0" encoding="utf-8"?>
<svg version="1.1" xmlns:xlink="http://www.w3.org/1999/xlink" width="12px" height="12px" xmlns="http://www.w3.org/2000/svg">
  <g transform="matrix(1 0 0 1 -620 -295 )">
    <path d="M 11.88 6  C 11.88 2.75256567099494  9.24743432900507 0.120000000000001  6 0.12  C 2.75256567099493 0.12  0.119999999999999 2.75256567099493  0.119999999999999 6  C 0.119999999999999 9.24743432900507  2.75256567099493 11.88  6 11.88  C 9.24743432900507 11.88  11.88 9.24743432900507  11.88 6  Z M 11.04 6  C 11.04 8.7835151391472  8.7835151391472 11.04  6 11.04  C 3.2164848608528 11.04  0.96 8.7835151391472  0.96 6  C 0.96 3.2164848608528  3.2164848608528 0.96  6 0.96  C 8.7835151391472 0.96  11.04 3.2164848608528  11.04 6  Z " fill-rule="nonzero" fill="#bfbfbf" stroke="none" transform="matrix(1 0 0 1 620 295 )" />
  </g>
</svg>