<?xml version="1.0" encoding="utf-8"?>
<svg version="1.1" xmlns:xlink="http://www.w3.org/1999/xlink" width="23px" height="23px" xmlns="http://www.w3.org/2000/svg">
  <g transform="matrix(1 0 0 1 -654 -16 )">
    <path d="M 1.965625 22.215625  C 1.81327693500901 22.3795459580497  1.59876901444359 22.4714779240063  1.375 22.46875  C 1.15123098555641 22.4714779240063  0.936723064990994 22.3795459580497  0.784374999999999 22.215625  C 0.621232181473348 22.0625125030187  0.528687285065919 21.8487387225508  0.528687285065919 21.625  C 0.528687285065919 21.4012612774492  0.621232181473347 21.1874874969813  0.784375 21.034375  L 21.034375 0.784375000000001  C 21.1910184893115 0.627731510688522  21.4034726529583 0.539730114723392  21.625 0.539730114723392  C 22.0863068196312 0.539730114723392  22.4602698852766 0.913693180368813  22.4602698852766 1.375  C 22.4602698852766 1.59652734704174  22.3722684893115 1.80898151068852  22.215625 1.965625  L 1.965625 22.215625  Z " fill-rule="nonzero" fill="#4d4d4d" stroke="none" transform="matrix(1 0 0 1 654 16 )" />
  </g>
</svg>