<?xml version="1.0" encoding="utf-8"?>
<svg version="1.1" xmlns:xlink="http://www.w3.org/1999/xlink" width="23px" height="23px" xmlns="http://www.w3.org/2000/svg">
  <g transform="matrix(1 0 0 1 -654 -16 )">
    <path d="M 22.215625 22.215625  C 22.063276935009 22.3795459580497  21.8487690144436 22.4714779240063  21.625 22.46875  C 21.4012309855564 22.4714779240063  21.186723064991 22.3795459580497  21.034375 22.215625  L 0.784375000000001 1.965625  C 0.62773151068852 1.80898151068852  0.539730114723391 1.59652734704174  0.539730114723391 1.375  C 0.539730114723391 0.913693180368811  0.913693180368813 0.53973011472339  1.375 0.53973011472339  C 1.59652734704174 0.53973011472339  1.80898151068852 0.627731510688518  1.965625 0.784374999999999  L 22.215625 21.034375  C 22.3787678185267 21.1874874969813  22.4713127149341 21.4012612774492  22.4713127149341 21.625  C 22.4713127149341 21.8487387225508  22.3787678185267 22.0625125030187  22.215625 22.215625  Z " fill-rule="nonzero" fill="#4d4d4d" stroke="none" transform="matrix(1 0 0 1 654 16 )" />
  </g>
</svg>