<?xml version="1.0" encoding="utf-8"?>
<svg version="1.1" xmlns:xlink="http://www.w3.org/1999/xlink" width="22px" height="22px" xmlns="http://www.w3.org/2000/svg">
  <g transform="matrix(1 0 0 1 -146 -503 )">
    <path d="M 22 16.5632183964844  C 22 19.5658699642667  19.5658699642667 22  16.5632183964844 22  L 5.43678160351562 22  C 2.43413003573334 22  0 19.5658699642667  0 16.5632183964844  L 0 5.43678160351562  C 0 2.43413003573334  2.43413003573334 0  5.43678160351562 0  L 16.5632183964844 0  C 19.5658699642667 0  22 2.43413003573334  22 5.43678160351562  L 22 16.5632183964844  Z M 16.5632183964844 2  L 5.43678160351562 2  C 3.41173753362789 1.77011496303737  1.77011496303737 3.41173753362789  2 5.43678160351562  L 2 16.5632183964844  C 1.77011496303737 18.5882624663721  3.41173753362789 20.2298850369626  5.43678160351562 20  L 16.5632183964844 20  C 18.5882624663721 20.2298850369626  20.2298850369626 18.5882624663721  20 16.5632183964844  L 20 5.43678160351562  C 20.2298850369626 3.41173753362789  18.5882624663721 1.77011496303737  16.5632183964844 2  Z " fill-rule="nonzero" fill="#8baef7" stroke="none" transform="matrix(1 0 0 1 146 503 )" />
  </g>
</svg>