<?xml version="1.0" encoding="utf-8"?>
<svg version="1.1" xmlns:xlink="http://www.w3.org/1999/xlink" width="19px" height="19px" xmlns="http://www.w3.org/2000/svg">
  <g transform="matrix(1 0 0 1 -147 -558 )">
    <path d="M 18.58701171875 9.4958984375  C 18.58701171875 14.52646484375  14.49365234375 18.61982421875  9.4630859375 18.61982421875  C 4.43251953125 18.61982421875  0.33916015625 14.52646484375  0.33916015625 9.4958984375  C 0.33916015625 4.46533203125  4.43046875 0.37197265625  9.4630859375 0.37197265625  C 14.495703125 0.37197265625  18.58701171875 4.46533203125  18.58701171875 9.4958984375  Z M 17.6416015625 9.4958984375  C 17.6416015625 4.98623046875  13.97275390625 1.3173828125  9.4630859375 1.3173828125  C 4.95341796875 1.3173828125  1.2845703125 4.98623046875  1.2845703125 9.4958984375  C 1.2845703125 14.00556640625  4.95341796875 17.6744140625  9.4630859375 17.6744140625  C 13.97275390625 17.6744140625  17.6416015625 14.00556640625  17.6416015625 9.4958984375  Z " fill-rule="nonzero" fill="#7d7d7d" stroke="none" transform="matrix(1 0 0 1 147 558 )" />
  </g>
</svg>