<?xml version="1.0" encoding="utf-8"?>
<svg version="1.1" xmlns:xlink="http://www.w3.org/1999/xlink" width="11px" height="11px" xmlns="http://www.w3.org/2000/svg">
  <g transform="matrix(1 0 0 1 -151 -562 )">
    <path d="M 10.2619140625 5.4958984375  C 10.2619140625 8.14140625  8.10859375 10.2947265625  5.4630859375 10.2947265625  C 2.817578125 10.2947265625  0.6642578125 8.14140625  0.6642578125 5.4958984375  C 0.6642578125 2.850390625  2.817578125 0.697070312499999  5.4630859375 0.697070312499999  C 8.10859375 0.697070312499999  10.2619140625 2.850390625  10.2619140625 5.4958984375  Z M 9.314453125 5.4958984375  C 9.314453125 3.3712890625  7.58564453125 1.64248046875  5.4630859375 1.64248046875  C 3.3384765625 1.64248046875  1.60966796875 3.3712890625  1.60966796875 5.4958984375  C 1.60966796875 7.6205078125  3.3384765625 9.34931640625  5.4630859375 9.34931640625  C 7.5876953125 9.34931640625  9.314453125 7.6205078125  9.314453125 5.4958984375  Z " fill-rule="nonzero" fill="#7d7d7d" stroke="none" transform="matrix(1 0 0 1 151 562 )" />
  </g>
</svg>