<?xml version="1.0" encoding="utf-8"?>
<svg version="1.1" xmlns:xlink="http://www.w3.org/1999/xlink" width="150px" height="28px" xmlns="http://www.w3.org/2000/svg">
  <defs>
    <mask fill="white" id="clip23">
      <path d="M 0 24  L 0 4  C 0 1.76  1.76000000000001 0  4 0  L 68.1293532338299 0  L 98.022988505745 0  L 146 0  C 148.24 0  150 1.76  150 4  L 150 14.4597701149415  L 150 24  C 150 26.24  148.24 28  146 28  L 4 28  C 1.76000000000001 28  0 26.24  0 24  Z " fill-rule="evenodd" />
    </mask>
  </defs>
  <g transform="matrix(1 0 0 1 -657 -16 )">
    <path d="M 0 24  L 0 4  C 0 1.76  1.76000000000001 0  4 0  L 68.1293532338299 0  L 98.022988505745 0  L 146 0  C 148.24 0  150 1.76  150 4  L 150 14.4597701149415  L 150 24  C 150 26.24  148.24 28  146 28  L 4 28  C 1.76000000000001 28  0 26.24  0 24  Z " fill-rule="nonzero" fill="#f5f7fa" stroke="none" transform="matrix(1 0 0 1 657 16 )" />
    <path d="M 0 24  L 0 4  C 0 1.76  1.76000000000001 0  4 0  L 68.1293532338299 0  L 98.022988505745 0  L 146 0  C 148.24 0  150 1.76  150 4  L 150 14.4597701149415  L 150 24  C 150 26.24  148.24 28  146 28  L 4 28  C 1.76000000000001 28  0 26.24  0 24  Z " stroke-width="2" stroke="#dcdfe6" fill="none" transform="matrix(1 0 0 1 657 16 )" mask="url(#clip23)" />
  </g>
</svg>